<?xml version="1.0" encoding="UTF-8" standalone="no"?>
<!DOCTYPE svg PUBLIC "-//W3C//DTD SVG 1.1//EN"
 "http://www.w3.org/Graphics/SVG/1.1/DTD/svg11.dtd">
<!-- Generated by graphviz version 2.42.3 (20191010.1750)
 -->
<!-- Title: snakemake_dag Pages: 1 -->
<svg width="338pt" height="980pt"
 viewBox="0.00 0.00 337.95 980.00" xmlns="http://www.w3.org/2000/svg" xmlns:xlink="http://www.w3.org/1999/xlink">
<g id="graph0" class="graph" transform="scale(1 1) rotate(0) translate(4 976)">
<title>snakemake_dag</title>
<polygon fill="white" stroke="transparent" points="-4,4 -4,-976 333.95,-976 333.95,4 -4,4"/>
<!-- 0 -->
<g id="node1" class="node">
<title>0</title>
<path fill="none" stroke="#d8d356" stroke-width="2" d="M189.95,-36C189.95,-36 159.95,-36 159.95,-36 153.95,-36 147.95,-30 147.95,-24 147.95,-24 147.95,-12 147.95,-12 147.95,-6 153.95,0 159.95,0 159.95,0 189.95,0 189.95,0 195.95,0 201.95,-6 201.95,-12 201.95,-12 201.95,-24 201.95,-24 201.95,-30 195.95,-36 189.95,-36"/>
<text text-anchor="middle" x="174.95" y="-15.5" font-family="sans" font-size="10.00">all</text>
</g>
<!-- 1 -->
<g id="node2" class="node">
<title>1</title>
<path fill="none" stroke="#56a9d8" stroke-width="2" d="M114.95,-468C114.95,-468 22.95,-468 22.95,-468 16.95,-468 10.95,-462 10.95,-456 10.95,-456 10.95,-444 10.95,-444 10.95,-438 16.95,-432 22.95,-432 22.95,-432 114.95,-432 114.95,-432 120.95,-432 126.95,-438 126.95,-444 126.95,-444 126.95,-456 126.95,-456 126.95,-462 120.95,-468 114.95,-468"/>
<text text-anchor="middle" x="68.95" y="-447.5" font-family="sans" font-size="10.00">merge_count_tables</text>
</g>
<!-- 1&#45;&gt;0 -->
<g id="edge6" class="edge">
<title>1&#45;&gt;0</title>
<path fill="none" stroke="grey" stroke-width="2" d="M54.75,-431.86C35.08,-406.34 1.95,-356.07 1.95,-307 1.95,-307 1.95,-307 1.95,-161 1.95,-120.55 -5.86,-102.28 20.95,-72 50.52,-38.62 102.09,-26.25 137.34,-21.68"/>
<polygon fill="grey" stroke="grey" stroke-width="2" points="138.18,-25.11 147.72,-20.49 137.38,-18.15 138.18,-25.11"/>
</g>
<!-- 5 -->
<g id="node6" class="node">
<title>5</title>
<path fill="none" stroke="#56d8b1" stroke-width="2" d="M197.45,-396C197.45,-396 140.45,-396 140.45,-396 134.45,-396 128.45,-390 128.45,-384 128.45,-384 128.45,-372 128.45,-372 128.45,-366 134.45,-360 140.45,-360 140.45,-360 197.45,-360 197.45,-360 203.45,-360 209.45,-366 209.45,-372 209.45,-372 209.45,-384 209.45,-384 209.45,-390 203.45,-396 197.45,-396"/>
<text text-anchor="middle" x="168.95" y="-375.5" font-family="sans" font-size="10.00">TEs_counting</text>
</g>
<!-- 1&#45;&gt;5 -->
<g id="edge10" class="edge">
<title>1&#45;&gt;5</title>
<path fill="none" stroke="grey" stroke-width="2" d="M93.42,-431.88C106.25,-422.89 122.15,-411.76 136.05,-402.03"/>
<polygon fill="grey" stroke="grey" stroke-width="2" points="138.21,-404.79 144.4,-396.19 134.2,-399.06 138.21,-404.79"/>
</g>
<!-- 14 -->
<g id="node15" class="node">
<title>14</title>
<path fill="none" stroke="#56d0d8" stroke-width="2" d="M190.95,-324C190.95,-324 92.95,-324 92.95,-324 86.95,-324 80.95,-318 80.95,-312 80.95,-312 80.95,-300 80.95,-300 80.95,-294 86.95,-288 92.95,-288 92.95,-288 190.95,-288 190.95,-288 196.95,-288 202.95,-294 202.95,-300 202.95,-300 202.95,-312 202.95,-312 202.95,-318 196.95,-324 190.95,-324"/>
<text text-anchor="middle" x="141.95" y="-303.5" font-family="sans" font-size="10.00">create_deseq2_ojects</text>
</g>
<!-- 1&#45;&gt;14 -->
<g id="edge21" class="edge">
<title>1&#45;&gt;14</title>
<path fill="none" stroke="grey" stroke-width="2" d="M77.76,-431.87C90.37,-407.35 113.66,-362.03 128.45,-333.26"/>
<polygon fill="grey" stroke="grey" stroke-width="2" points="131.66,-334.68 133.12,-324.19 125.43,-331.48 131.66,-334.68"/>
</g>
<!-- 2 -->
<g id="node3" class="node">
<title>2</title>
<path fill="none" stroke="#566bd8" stroke-width="2" d="M216.45,-828C216.45,-828 147.45,-828 147.45,-828 141.45,-828 135.45,-822 135.45,-816 135.45,-816 135.45,-804 135.45,-804 135.45,-798 141.45,-792 147.45,-792 147.45,-792 216.45,-792 216.45,-792 222.45,-792 228.45,-798 228.45,-804 228.45,-804 228.45,-816 228.45,-816 228.45,-822 222.45,-828 216.45,-828"/>
<text text-anchor="middle" x="181.95" y="-807.5" font-family="sans" font-size="10.00">align_first_pass</text>
</g>
<!-- 2&#45;&gt;1 -->
<g id="edge7" class="edge">
<title>2&#45;&gt;1</title>
<path fill="none" stroke="grey" stroke-width="2" d="M161.98,-791.95C135.47,-767.31 91.95,-718.95 91.95,-667 91.95,-667 91.95,-667 91.95,-593 91.95,-552.7 82.81,-506.78 76.06,-478.34"/>
<polygon fill="grey" stroke="grey" stroke-width="2" points="79.39,-477.22 73.61,-468.34 72.59,-478.89 79.39,-477.22"/>
</g>
<!-- 10 -->
<g id="node11" class="node">
<title>10</title>
<path fill="none" stroke="#56c1d8" stroke-width="2" d="M208.45,-756C208.45,-756 155.45,-756 155.45,-756 149.45,-756 143.45,-750 143.45,-744 143.45,-744 143.45,-732 143.45,-732 143.45,-726 149.45,-720 155.45,-720 155.45,-720 208.45,-720 208.45,-720 214.45,-720 220.45,-726 220.45,-732 220.45,-732 220.45,-744 220.45,-744 220.45,-750 214.45,-756 208.45,-756"/>
<text text-anchor="middle" x="181.95" y="-735.5" font-family="sans" font-size="10.00">move_bams</text>
</g>
<!-- 2&#45;&gt;10 -->
<g id="edge16" class="edge">
<title>2&#45;&gt;10</title>
<path fill="none" stroke="grey" stroke-width="2" d="M181.95,-791.7C181.95,-783.98 181.95,-774.71 181.95,-766.11"/>
<polygon fill="grey" stroke="grey" stroke-width="2" points="185.45,-766.1 181.95,-756.1 178.45,-766.1 185.45,-766.1"/>
</g>
<!-- 11 -->
<g id="node12" class="node">
<title>11</title>
<path fill="none" stroke="#d8ac56" stroke-width="2" d="M317.95,-684C317.95,-684 251.95,-684 251.95,-684 245.95,-684 239.95,-678 239.95,-672 239.95,-672 239.95,-660 239.95,-660 239.95,-654 245.95,-648 251.95,-648 251.95,-648 317.95,-648 317.95,-648 323.95,-648 329.95,-654 329.95,-660 329.95,-660 329.95,-672 329.95,-672 329.95,-678 323.95,-684 317.95,-684"/>
<text text-anchor="middle" x="284.95" y="-663.5" font-family="sans" font-size="10.00">create_bigwigs</text>
</g>
<!-- 2&#45;&gt;11 -->
<g id="edge17" class="edge">
<title>2&#45;&gt;11</title>
<path fill="none" stroke="grey" stroke-width="2" d="M198.37,-791.94C207.76,-781.84 219.51,-768.59 228.95,-756 244.16,-735.73 259.34,-711.28 270.05,-693.13"/>
<polygon fill="grey" stroke="grey" stroke-width="2" points="273.2,-694.68 275.22,-684.28 267.16,-691.15 273.2,-694.68"/>
</g>
<!-- 3 -->
<g id="node4" class="node">
<title>3</title>
<path fill="none" stroke="#56d8a2" stroke-width="2" d="M217.45,-900C217.45,-900 146.45,-900 146.45,-900 140.45,-900 134.45,-894 134.45,-888 134.45,-888 134.45,-876 134.45,-876 134.45,-870 140.45,-864 146.45,-864 146.45,-864 217.45,-864 217.45,-864 223.45,-864 229.45,-870 229.45,-876 229.45,-876 229.45,-888 229.45,-888 229.45,-894 223.45,-900 217.45,-900"/>
<text text-anchor="middle" x="181.95" y="-879.5" font-family="sans" font-size="10.00">merge_fastq_se</text>
</g>
<!-- 3&#45;&gt;2 -->
<g id="edge8" class="edge">
<title>3&#45;&gt;2</title>
<path fill="none" stroke="grey" stroke-width="2" d="M181.95,-863.7C181.95,-855.98 181.95,-846.71 181.95,-838.11"/>
<polygon fill="grey" stroke="grey" stroke-width="2" points="185.45,-838.1 181.95,-828.1 178.45,-838.1 185.45,-838.1"/>
</g>
<!-- 4 -->
<g id="node5" class="node">
<title>4</title>
<path fill="none" stroke="#56d88a" stroke-width="2" d="M212.95,-972C212.95,-972 150.95,-972 150.95,-972 144.95,-972 138.95,-966 138.95,-960 138.95,-960 138.95,-948 138.95,-948 138.95,-942 144.95,-936 150.95,-936 150.95,-936 212.95,-936 212.95,-936 218.95,-936 224.95,-942 224.95,-948 224.95,-948 224.95,-960 224.95,-960 224.95,-966 218.95,-972 212.95,-972"/>
<text text-anchor="middle" x="181.95" y="-951.5" font-family="sans" font-size="10.00">copy_fastq_se</text>
</g>
<!-- 4&#45;&gt;3 -->
<g id="edge9" class="edge">
<title>4&#45;&gt;3</title>
<path fill="none" stroke="grey" stroke-width="2" d="M181.95,-935.7C181.95,-927.98 181.95,-918.71 181.95,-910.11"/>
<polygon fill="grey" stroke="grey" stroke-width="2" points="185.45,-910.1 181.95,-900.1 178.45,-910.1 185.45,-910.1"/>
</g>
<!-- 5&#45;&gt;0 -->
<g id="edge3" class="edge">
<title>5&#45;&gt;0</title>
<path fill="none" stroke="grey" stroke-width="2" d="M185.88,-359.85C208.82,-334.71 246.95,-285.35 246.95,-235 246.95,-235 246.95,-235 246.95,-161 246.95,-116.35 218.29,-71.52 197.14,-44.51"/>
<polygon fill="grey" stroke="grey" stroke-width="2" points="199.58,-41.96 190.58,-36.38 194.14,-46.36 199.58,-41.96"/>
</g>
<!-- 5&#45;&gt;14 -->
<g id="edge20" class="edge">
<title>5&#45;&gt;14</title>
<path fill="none" stroke="grey" stroke-width="2" d="M162.28,-359.7C159.24,-351.81 155.57,-342.3 152.19,-333.55"/>
<polygon fill="grey" stroke="grey" stroke-width="2" points="155.42,-332.17 148.55,-324.1 148.88,-334.69 155.42,-332.17"/>
</g>
<!-- 6 -->
<g id="node7" class="node">
<title>6</title>
<path fill="none" stroke="#88d856" stroke-width="2" d="M240.95,-468C240.95,-468 156.95,-468 156.95,-468 150.95,-468 144.95,-462 144.95,-456 144.95,-456 144.95,-444 144.95,-444 144.95,-438 150.95,-432 156.95,-432 156.95,-432 240.95,-432 240.95,-432 246.95,-432 252.95,-438 252.95,-444 252.95,-444 252.95,-456 252.95,-456 252.95,-462 246.95,-468 240.95,-468"/>
<text text-anchor="middle" x="198.95" y="-447.5" font-family="sans" font-size="10.00">align_second_pass</text>
</g>
<!-- 6&#45;&gt;5 -->
<g id="edge11" class="edge">
<title>6&#45;&gt;5</title>
<path fill="none" stroke="grey" stroke-width="2" d="M191.54,-431.7C188.16,-423.81 184.08,-414.3 180.33,-405.55"/>
<polygon fill="grey" stroke="grey" stroke-width="2" points="183.44,-403.92 176.28,-396.1 177.01,-406.67 183.44,-403.92"/>
</g>
<!-- 7 -->
<g id="node8" class="node">
<title>7</title>
<path fill="none" stroke="#56d873" stroke-width="2" d="M220.45,-540C220.45,-540 161.45,-540 161.45,-540 155.45,-540 149.45,-534 149.45,-528 149.45,-528 149.45,-516 149.45,-516 149.45,-510 155.45,-504 161.45,-504 161.45,-504 220.45,-504 220.45,-504 226.45,-504 232.45,-510 232.45,-516 232.45,-516 232.45,-528 232.45,-528 232.45,-534 226.45,-540 220.45,-540"/>
<text text-anchor="middle" x="190.95" y="-519.5" font-family="sans" font-size="10.00">bam_to_fastq</text>
</g>
<!-- 7&#45;&gt;6 -->
<g id="edge12" class="edge">
<title>7&#45;&gt;6</title>
<path fill="none" stroke="grey" stroke-width="2" d="M192.93,-503.7C193.81,-495.98 194.87,-486.71 195.86,-478.11"/>
<polygon fill="grey" stroke="grey" stroke-width="2" points="199.34,-478.44 197,-468.1 192.39,-477.64 199.34,-478.44"/>
</g>
<!-- 8 -->
<g id="node9" class="node">
<title>8</title>
<path fill="none" stroke="#d86e56" stroke-width="2" d="M218.95,-612C218.95,-612 154.95,-612 154.95,-612 148.95,-612 142.95,-606 142.95,-600 142.95,-600 142.95,-588 142.95,-588 142.95,-582 148.95,-576 154.95,-576 154.95,-576 218.95,-576 218.95,-576 224.95,-576 230.95,-582 230.95,-588 230.95,-588 230.95,-600 230.95,-600 230.95,-606 224.95,-612 218.95,-612"/>
<text text-anchor="middle" x="186.95" y="-591.5" font-family="sans" font-size="10.00">filter_bam_file</text>
</g>
<!-- 8&#45;&gt;7 -->
<g id="edge13" class="edge">
<title>8&#45;&gt;7</title>
<path fill="none" stroke="grey" stroke-width="2" d="M187.94,-575.7C188.38,-567.98 188.91,-558.71 189.4,-550.11"/>
<polygon fill="grey" stroke="grey" stroke-width="2" points="192.9,-550.29 189.98,-540.1 185.91,-549.89 192.9,-550.29"/>
</g>
<!-- 9 -->
<g id="node10" class="node">
<title>9</title>
<path fill="none" stroke="#d8bc56" stroke-width="2" d="M209.95,-684C209.95,-684 153.95,-684 153.95,-684 147.95,-684 141.95,-678 141.95,-672 141.95,-672 141.95,-660 141.95,-660 141.95,-654 147.95,-648 153.95,-648 153.95,-648 209.95,-648 209.95,-648 215.95,-648 221.95,-654 221.95,-660 221.95,-660 221.95,-672 221.95,-672 221.95,-678 215.95,-684 209.95,-684"/>
<text text-anchor="middle" x="181.95" y="-663.5" font-family="sans" font-size="10.00">tag_bam_file</text>
</g>
<!-- 9&#45;&gt;8 -->
<g id="edge14" class="edge">
<title>9&#45;&gt;8</title>
<path fill="none" stroke="grey" stroke-width="2" d="M183.19,-647.7C183.74,-639.98 184.4,-630.71 185.02,-622.11"/>
<polygon fill="grey" stroke="grey" stroke-width="2" points="188.51,-622.33 185.73,-612.1 181.53,-621.83 188.51,-622.33"/>
</g>
<!-- 10&#45;&gt;9 -->
<g id="edge15" class="edge">
<title>10&#45;&gt;9</title>
<path fill="none" stroke="grey" stroke-width="2" d="M181.95,-719.7C181.95,-711.98 181.95,-702.71 181.95,-694.11"/>
<polygon fill="grey" stroke="grey" stroke-width="2" points="185.45,-694.1 181.95,-684.1 178.45,-694.1 185.45,-694.1"/>
</g>
<!-- 11&#45;&gt;0 -->
<g id="edge5" class="edge">
<title>11&#45;&gt;0</title>
<path fill="none" stroke="grey" stroke-width="2" d="M284.95,-647.95C284.95,-621.29 284.95,-568.11 284.95,-523 284.95,-523 284.95,-523 284.95,-161 284.95,-110.76 241.39,-67.52 209.09,-42.36"/>
<polygon fill="grey" stroke="grey" stroke-width="2" points="210.83,-39.29 200.74,-36.06 206.62,-44.88 210.83,-39.29"/>
</g>
<!-- 12 -->
<g id="node13" class="node">
<title>12</title>
<path fill="none" stroke="#9fd856" stroke-width="2" d="M191.45,-180C191.45,-180 92.45,-180 92.45,-180 86.45,-180 80.45,-174 80.45,-168 80.45,-168 80.45,-156 80.45,-156 80.45,-150 86.45,-144 92.45,-144 92.45,-144 191.45,-144 191.45,-144 197.45,-144 203.45,-150 203.45,-156 203.45,-156 203.45,-168 203.45,-168 203.45,-174 197.45,-180 191.45,-180"/>
<text text-anchor="middle" x="141.95" y="-159.5" font-family="sans" font-size="10.00">filtering_de_elements</text>
</g>
<!-- 12&#45;&gt;0 -->
<g id="edge4" class="edge">
<title>12&#45;&gt;0</title>
<path fill="none" stroke="grey" stroke-width="2" d="M163.22,-143.7C173.06,-134.31 183.72,-121.8 188.95,-108 196.55,-87.98 192.02,-63.92 186.16,-45.87"/>
<polygon fill="grey" stroke="grey" stroke-width="2" points="189.39,-44.51 182.74,-36.27 182.8,-46.86 189.39,-44.51"/>
</g>
<!-- 15 -->
<g id="node16" class="node">
<title>15</title>
<path fill="none" stroke="#56d863" stroke-width="2" d="M73.45,-108C73.45,-108 42.45,-108 42.45,-108 36.45,-108 30.45,-102 30.45,-96 30.45,-96 30.45,-84 30.45,-84 30.45,-78 36.45,-72 42.45,-72 42.45,-72 73.45,-72 73.45,-72 79.45,-72 85.45,-78 85.45,-84 85.45,-84 85.45,-96 85.45,-96 85.45,-102 79.45,-108 73.45,-108"/>
<text text-anchor="middle" x="57.95" y="-87.5" font-family="sans" font-size="10.00">volcano</text>
</g>
<!-- 12&#45;&gt;15 -->
<g id="edge22" class="edge">
<title>12&#45;&gt;15</title>
<path fill="none" stroke="grey" stroke-width="2" d="M121.19,-143.7C110.71,-134.97 97.84,-124.24 86.45,-114.75"/>
<polygon fill="grey" stroke="grey" stroke-width="2" points="88.4,-111.82 78.48,-108.1 83.92,-117.19 88.4,-111.82"/>
</g>
<!-- 16 -->
<g id="node17" class="node">
<title>16</title>
<path fill="none" stroke="#61d856" stroke-width="2" d="M168.45,-108C168.45,-108 115.45,-108 115.45,-108 109.45,-108 103.45,-102 103.45,-96 103.45,-96 103.45,-84 103.45,-84 103.45,-78 109.45,-72 115.45,-72 115.45,-72 168.45,-72 168.45,-72 174.45,-72 180.45,-78 180.45,-84 180.45,-84 180.45,-96 180.45,-96 180.45,-102 174.45,-108 168.45,-108"/>
<text text-anchor="middle" x="141.95" y="-87.5" font-family="sans" font-size="10.00">enrichments</text>
</g>
<!-- 12&#45;&gt;16 -->
<g id="edge23" class="edge">
<title>12&#45;&gt;16</title>
<path fill="none" stroke="grey" stroke-width="2" d="M141.95,-143.7C141.95,-135.98 141.95,-126.71 141.95,-118.11"/>
<polygon fill="grey" stroke="grey" stroke-width="2" points="145.45,-118.1 141.95,-108.1 138.45,-118.1 145.45,-118.1"/>
</g>
<!-- 13 -->
<g id="node14" class="node">
<title>13</title>
<path fill="none" stroke="#78d856" stroke-width="2" d="M196.95,-252C196.95,-252 86.95,-252 86.95,-252 80.95,-252 74.95,-246 74.95,-240 74.95,-240 74.95,-228 74.95,-228 74.95,-222 80.95,-216 86.95,-216 86.95,-216 196.95,-216 196.95,-216 202.95,-216 208.95,-222 208.95,-228 208.95,-228 208.95,-240 208.95,-240 208.95,-246 202.95,-252 196.95,-252"/>
<text text-anchor="middle" x="141.95" y="-231.5" font-family="sans" font-size="10.00">differential_expresssion</text>
</g>
<!-- 13&#45;&gt;12 -->
<g id="edge18" class="edge">
<title>13&#45;&gt;12</title>
<path fill="none" stroke="grey" stroke-width="2" d="M141.95,-215.7C141.95,-207.98 141.95,-198.71 141.95,-190.11"/>
<polygon fill="grey" stroke="grey" stroke-width="2" points="145.45,-190.1 141.95,-180.1 138.45,-190.1 145.45,-190.1"/>
</g>
<!-- 14&#45;&gt;13 -->
<g id="edge19" class="edge">
<title>14&#45;&gt;13</title>
<path fill="none" stroke="grey" stroke-width="2" d="M141.95,-287.7C141.95,-279.98 141.95,-270.71 141.95,-262.11"/>
<polygon fill="grey" stroke="grey" stroke-width="2" points="145.45,-262.1 141.95,-252.1 138.45,-262.1 145.45,-262.1"/>
</g>
<!-- 15&#45;&gt;0 -->
<g id="edge2" class="edge">
<title>15&#45;&gt;0</title>
<path fill="none" stroke="grey" stroke-width="2" d="M85.68,-72.41C101.68,-62.84 121.97,-50.7 139.16,-40.42"/>
<polygon fill="grey" stroke="grey" stroke-width="2" points="141.05,-43.37 147.83,-35.23 137.45,-37.36 141.05,-43.37"/>
</g>
<!-- 16&#45;&gt;0 -->
<g id="edge1" class="edge">
<title>16&#45;&gt;0</title>
<path fill="none" stroke="grey" stroke-width="2" d="M150.11,-71.7C153.87,-63.73 158.41,-54.1 162.57,-45.26"/>
<polygon fill="grey" stroke="grey" stroke-width="2" points="165.79,-46.64 166.89,-36.1 159.46,-43.66 165.79,-46.64"/>
</g>
</g>
</svg>
