<?xml version="1.0" encoding="UTF-8" standalone="no"?>
<!DOCTYPE svg PUBLIC "-//W3C//DTD SVG 1.1//EN"
 "http://www.w3.org/Graphics/SVG/1.1/DTD/svg11.dtd">
<!-- Generated by graphviz version 2.42.3 (20191010.1750)
 -->
<!-- Title: snakemake_dag Pages: 1 -->
<svg width="268pt" height="980pt"
 viewBox="0.00 0.00 267.64 980.00" xmlns="http://www.w3.org/2000/svg" xmlns:xlink="http://www.w3.org/1999/xlink">
<g id="graph0" class="graph" transform="scale(1 1) rotate(0) translate(4 976)">
<title>snakemake_dag</title>
<polygon fill="white" stroke="transparent" points="-4,4 -4,-976 263.64,-976 263.64,4 -4,4"/>
<!-- 0 -->
<g id="node1" class="node">
<title>0</title>
<path fill="none" stroke="#d86e56" stroke-width="2" d="M156.64,-36C156.64,-36 126.64,-36 126.64,-36 120.64,-36 114.64,-30 114.64,-24 114.64,-24 114.64,-12 114.64,-12 114.64,-6 120.64,0 126.64,0 126.64,0 156.64,0 156.64,0 162.64,0 168.64,-6 168.64,-12 168.64,-12 168.64,-24 168.64,-24 168.64,-30 162.64,-36 156.64,-36"/>
<text text-anchor="middle" x="141.64" y="-15.5" font-family="sans" font-size="10.00">all</text>
</g>
<!-- 1 -->
<g id="node2" class="node">
<title>1</title>
<path fill="none" stroke="#56a9d8" stroke-width="2" d="M121.64,-468C121.64,-468 29.64,-468 29.64,-468 23.64,-468 17.64,-462 17.64,-456 17.64,-456 17.64,-444 17.64,-444 17.64,-438 23.64,-432 29.64,-432 29.64,-432 121.64,-432 121.64,-432 127.64,-432 133.64,-438 133.64,-444 133.64,-444 133.64,-456 133.64,-456 133.64,-462 127.64,-468 121.64,-468"/>
<text text-anchor="middle" x="75.64" y="-447.5" font-family="sans" font-size="10.00">merge_count_tables</text>
</g>
<!-- 1&#45;&gt;0 -->
<g id="edge5" class="edge">
<title>1&#45;&gt;0</title>
<path fill="none" stroke="grey" stroke-width="2" d="M59.58,-431.69C37.82,-406.36 1.64,-356.76 1.64,-307 1.64,-307 1.64,-307 1.64,-161 1.64,-120.55 -4.92,-103.34 20.64,-72 41.53,-46.39 77.23,-32.82 104.46,-25.85"/>
<polygon fill="grey" stroke="grey" stroke-width="2" points="105.51,-29.2 114.43,-23.49 103.9,-22.39 105.51,-29.2"/>
</g>
<!-- 5 -->
<g id="node6" class="node">
<title>5</title>
<path fill="none" stroke="#56d8d8" stroke-width="2" d="M204.14,-396C204.14,-396 147.14,-396 147.14,-396 141.14,-396 135.14,-390 135.14,-384 135.14,-384 135.14,-372 135.14,-372 135.14,-366 141.14,-360 147.14,-360 147.14,-360 204.14,-360 204.14,-360 210.14,-360 216.14,-366 216.14,-372 216.14,-372 216.14,-384 216.14,-384 216.14,-390 210.14,-396 204.14,-396"/>
<text text-anchor="middle" x="175.64" y="-375.5" font-family="sans" font-size="10.00">TEs_counting</text>
</g>
<!-- 1&#45;&gt;5 -->
<g id="edge10" class="edge">
<title>1&#45;&gt;5</title>
<path fill="none" stroke="grey" stroke-width="2" d="M100.1,-431.88C112.94,-422.89 128.84,-411.76 142.73,-402.03"/>
<polygon fill="grey" stroke="grey" stroke-width="2" points="144.9,-404.79 151.08,-396.19 140.88,-399.06 144.9,-404.79"/>
</g>
<!-- 13 -->
<g id="node14" class="node">
<title>13</title>
<path fill="none" stroke="#97d856" stroke-width="2" d="M190.64,-324C190.64,-324 92.64,-324 92.64,-324 86.64,-324 80.64,-318 80.64,-312 80.64,-312 80.64,-300 80.64,-300 80.64,-294 86.64,-288 92.64,-288 92.64,-288 190.64,-288 190.64,-288 196.64,-288 202.64,-294 202.64,-300 202.64,-300 202.64,-312 202.64,-312 202.64,-318 196.64,-324 190.64,-324"/>
<text text-anchor="middle" x="141.64" y="-303.5" font-family="sans" font-size="10.00">create_deseq2_ojects</text>
</g>
<!-- 1&#45;&gt;13 -->
<g id="edge18" class="edge">
<title>1&#45;&gt;13</title>
<path fill="none" stroke="grey" stroke-width="2" d="M83.6,-431.87C95,-407.35 116.06,-362.03 129.44,-333.26"/>
<polygon fill="grey" stroke="grey" stroke-width="2" points="132.61,-334.73 133.65,-324.19 126.26,-331.78 132.61,-334.73"/>
</g>
<!-- 2 -->
<g id="node3" class="node">
<title>2</title>
<path fill="none" stroke="#56d8c1" stroke-width="2" d="M172.14,-828C172.14,-828 103.14,-828 103.14,-828 97.14,-828 91.14,-822 91.14,-816 91.14,-816 91.14,-804 91.14,-804 91.14,-798 97.14,-792 103.14,-792 103.14,-792 172.14,-792 172.14,-792 178.14,-792 184.14,-798 184.14,-804 184.14,-804 184.14,-816 184.14,-816 184.14,-822 178.14,-828 172.14,-828"/>
<text text-anchor="middle" x="137.64" y="-807.5" font-family="sans" font-size="10.00">align_first_pass</text>
</g>
<!-- 2&#45;&gt;1 -->
<g id="edge6" class="edge">
<title>2&#45;&gt;1</title>
<path fill="none" stroke="grey" stroke-width="2" d="M130.96,-791.81C121.32,-765.4 104.64,-713.06 104.64,-667 104.64,-667 104.64,-667 104.64,-593 104.64,-552.21 93.01,-506.15 84.48,-477.84"/>
<polygon fill="grey" stroke="grey" stroke-width="2" points="87.82,-476.77 81.51,-468.26 81.13,-478.84 87.82,-476.77"/>
</g>
<!-- 10 -->
<g id="node11" class="node">
<title>10</title>
<path fill="none" stroke="#56c1d8" stroke-width="2" d="M203.14,-756C203.14,-756 150.14,-756 150.14,-756 144.14,-756 138.14,-750 138.14,-744 138.14,-744 138.14,-732 138.14,-732 138.14,-726 144.14,-720 150.14,-720 150.14,-720 203.14,-720 203.14,-720 209.14,-720 215.14,-726 215.14,-732 215.14,-732 215.14,-744 215.14,-744 215.14,-750 209.14,-756 203.14,-756"/>
<text text-anchor="middle" x="176.64" y="-735.5" font-family="sans" font-size="10.00">move_bams</text>
</g>
<!-- 2&#45;&gt;10 -->
<g id="edge15" class="edge">
<title>2&#45;&gt;10</title>
<path fill="none" stroke="grey" stroke-width="2" d="M147.28,-791.7C151.77,-783.64 157.2,-773.89 162.16,-764.98"/>
<polygon fill="grey" stroke="grey" stroke-width="2" points="165.3,-766.54 167.11,-756.1 159.19,-763.14 165.3,-766.54"/>
</g>
<!-- 3 -->
<g id="node4" class="node">
<title>3</title>
<path fill="none" stroke="#c6d856" stroke-width="2" d="M173.14,-900C173.14,-900 102.14,-900 102.14,-900 96.14,-900 90.14,-894 90.14,-888 90.14,-888 90.14,-876 90.14,-876 90.14,-870 96.14,-864 102.14,-864 102.14,-864 173.14,-864 173.14,-864 179.14,-864 185.14,-870 185.14,-876 185.14,-876 185.14,-888 185.14,-888 185.14,-894 179.14,-900 173.14,-900"/>
<text text-anchor="middle" x="137.64" y="-879.5" font-family="sans" font-size="10.00">merge_fastq_pe</text>
</g>
<!-- 3&#45;&gt;2 -->
<g id="edge7" class="edge">
<title>3&#45;&gt;2</title>
<path fill="none" stroke="grey" stroke-width="2" d="M137.64,-863.7C137.64,-855.98 137.64,-846.71 137.64,-838.11"/>
<polygon fill="grey" stroke="grey" stroke-width="2" points="141.14,-838.1 137.64,-828.1 134.14,-838.1 141.14,-838.1"/>
</g>
<!-- 4 -->
<g id="node5" class="node">
<title>4</title>
<path fill="none" stroke="#80d856" stroke-width="2" d="M169.14,-972C169.14,-972 106.14,-972 106.14,-972 100.14,-972 94.14,-966 94.14,-960 94.14,-960 94.14,-948 94.14,-948 94.14,-942 100.14,-936 106.14,-936 106.14,-936 169.14,-936 169.14,-936 175.14,-936 181.14,-942 181.14,-948 181.14,-948 181.14,-960 181.14,-960 181.14,-966 175.14,-972 169.14,-972"/>
<text text-anchor="middle" x="137.64" y="-951.5" font-family="sans" font-size="10.00">copy_fastq_pe</text>
</g>
<!-- 4&#45;&gt;3 -->
<g id="edge8" class="edge">
<title>4&#45;&gt;3</title>
<path fill="none" stroke="grey" stroke-width="2" d="M137.64,-935.7C137.64,-927.98 137.64,-918.71 137.64,-910.11"/>
<polygon fill="grey" stroke="grey" stroke-width="2" points="141.14,-910.1 137.64,-900.1 134.14,-910.1 141.14,-910.1"/>
</g>
<!-- 5&#45;&gt;0 -->
<g id="edge2" class="edge">
<title>5&#45;&gt;0</title>
<path fill="none" stroke="grey" stroke-width="2" d="M191.05,-359.58C211.93,-334.1 246.64,-284.34 246.64,-235 246.64,-235 246.64,-235 246.64,-161 246.64,-117.45 232.18,-106.53 205.64,-72 197.16,-60.97 185.99,-50.73 175.36,-42.25"/>
<polygon fill="grey" stroke="grey" stroke-width="2" points="177.45,-39.44 167.39,-36.13 173.18,-44.99 177.45,-39.44"/>
</g>
<!-- 5&#45;&gt;13 -->
<g id="edge19" class="edge">
<title>5&#45;&gt;13</title>
<path fill="none" stroke="grey" stroke-width="2" d="M167.24,-359.7C163.37,-351.73 158.69,-342.1 154.4,-333.26"/>
<polygon fill="grey" stroke="grey" stroke-width="2" points="157.47,-331.57 149.95,-324.1 151.17,-334.63 157.47,-331.57"/>
</g>
<!-- 6 -->
<g id="node7" class="node">
<title>6</title>
<path fill="none" stroke="#59d856" stroke-width="2" d="M247.64,-468C247.64,-468 163.64,-468 163.64,-468 157.64,-468 151.64,-462 151.64,-456 151.64,-456 151.64,-444 151.64,-444 151.64,-438 157.64,-432 163.64,-432 163.64,-432 247.64,-432 247.64,-432 253.64,-432 259.64,-438 259.64,-444 259.64,-444 259.64,-456 259.64,-456 259.64,-462 253.64,-468 247.64,-468"/>
<text text-anchor="middle" x="205.64" y="-447.5" font-family="sans" font-size="10.00">align_second_pass</text>
</g>
<!-- 6&#45;&gt;5 -->
<g id="edge9" class="edge">
<title>6&#45;&gt;5</title>
<path fill="none" stroke="grey" stroke-width="2" d="M198.22,-431.7C194.85,-423.81 190.77,-414.3 187.02,-405.55"/>
<polygon fill="grey" stroke="grey" stroke-width="2" points="190.13,-403.92 182.97,-396.1 183.69,-406.67 190.13,-403.92"/>
</g>
<!-- 7 -->
<g id="node8" class="node">
<title>7</title>
<path fill="none" stroke="#d8ac56" stroke-width="2" d="M227.14,-540C227.14,-540 168.14,-540 168.14,-540 162.14,-540 156.14,-534 156.14,-528 156.14,-528 156.14,-516 156.14,-516 156.14,-510 162.14,-504 168.14,-504 168.14,-504 227.14,-504 227.14,-504 233.14,-504 239.14,-510 239.14,-516 239.14,-516 239.14,-528 239.14,-528 239.14,-534 233.14,-540 227.14,-540"/>
<text text-anchor="middle" x="197.64" y="-519.5" font-family="sans" font-size="10.00">bam_to_fastq</text>
</g>
<!-- 7&#45;&gt;6 -->
<g id="edge11" class="edge">
<title>7&#45;&gt;6</title>
<path fill="none" stroke="grey" stroke-width="2" d="M199.62,-503.7C200.5,-495.98 201.56,-486.71 202.54,-478.11"/>
<polygon fill="grey" stroke="grey" stroke-width="2" points="206.03,-478.44 203.69,-468.1 199.07,-477.64 206.03,-478.44"/>
</g>
<!-- 8 -->
<g id="node9" class="node">
<title>8</title>
<path fill="none" stroke="#566bd8" stroke-width="2" d="M222.64,-612C222.64,-612 158.64,-612 158.64,-612 152.64,-612 146.64,-606 146.64,-600 146.64,-600 146.64,-588 146.64,-588 146.64,-582 152.64,-576 158.64,-576 158.64,-576 222.64,-576 222.64,-576 228.64,-576 234.64,-582 234.64,-588 234.64,-588 234.64,-600 234.64,-600 234.64,-606 228.64,-612 222.64,-612"/>
<text text-anchor="middle" x="190.64" y="-591.5" font-family="sans" font-size="10.00">filter_bam_file</text>
</g>
<!-- 8&#45;&gt;7 -->
<g id="edge12" class="edge">
<title>8&#45;&gt;7</title>
<path fill="none" stroke="grey" stroke-width="2" d="M192.37,-575.7C193.14,-567.98 194.07,-558.71 194.93,-550.11"/>
<polygon fill="grey" stroke="grey" stroke-width="2" points="198.42,-550.4 195.93,-540.1 191.45,-549.71 198.42,-550.4"/>
</g>
<!-- 9 -->
<g id="node10" class="node">
<title>9</title>
<path fill="none" stroke="#56d8a9" stroke-width="2" d="M209.64,-684C209.64,-684 153.64,-684 153.64,-684 147.64,-684 141.64,-678 141.64,-672 141.64,-672 141.64,-660 141.64,-660 141.64,-654 147.64,-648 153.64,-648 153.64,-648 209.64,-648 209.64,-648 215.64,-648 221.64,-654 221.64,-660 221.64,-660 221.64,-672 221.64,-672 221.64,-678 215.64,-684 209.64,-684"/>
<text text-anchor="middle" x="181.64" y="-663.5" font-family="sans" font-size="10.00">tag_bam_file</text>
</g>
<!-- 9&#45;&gt;8 -->
<g id="edge13" class="edge">
<title>9&#45;&gt;8</title>
<path fill="none" stroke="grey" stroke-width="2" d="M183.87,-647.7C184.86,-639.98 186.05,-630.71 187.15,-622.11"/>
<polygon fill="grey" stroke="grey" stroke-width="2" points="190.64,-622.47 188.44,-612.1 183.69,-621.58 190.64,-622.47"/>
</g>
<!-- 10&#45;&gt;9 -->
<g id="edge14" class="edge">
<title>10&#45;&gt;9</title>
<path fill="none" stroke="grey" stroke-width="2" d="M177.88,-719.7C178.43,-711.98 179.09,-702.71 179.7,-694.11"/>
<polygon fill="grey" stroke="grey" stroke-width="2" points="183.2,-694.33 180.42,-684.1 176.22,-693.83 183.2,-694.33"/>
</g>
<!-- 11 -->
<g id="node12" class="node">
<title>11</title>
<path fill="none" stroke="#d8c356" stroke-width="2" d="M191.14,-180C191.14,-180 92.14,-180 92.14,-180 86.14,-180 80.14,-174 80.14,-168 80.14,-168 80.14,-156 80.14,-156 80.14,-150 86.14,-144 92.14,-144 92.14,-144 191.14,-144 191.14,-144 197.14,-144 203.14,-150 203.14,-156 203.14,-156 203.14,-168 203.14,-168 203.14,-174 197.14,-180 191.14,-180"/>
<text text-anchor="middle" x="141.64" y="-159.5" font-family="sans" font-size="10.00">filtering_de_elements</text>
</g>
<!-- 11&#45;&gt;0 -->
<g id="edge4" class="edge">
<title>11&#45;&gt;0</title>
<path fill="none" stroke="grey" stroke-width="2" d="M162.91,-143.7C172.75,-134.31 183.4,-121.8 188.64,-108 194.32,-93.04 194.32,-86.96 188.64,-72 184.67,-61.54 177.59,-51.83 170.11,-43.65"/>
<polygon fill="grey" stroke="grey" stroke-width="2" points="172.41,-40.99 162.91,-36.3 167.41,-45.89 172.41,-40.99"/>
</g>
<!-- 14 -->
<g id="node15" class="node">
<title>14</title>
<path fill="none" stroke="#5682d8" stroke-width="2" d="M73.14,-108C73.14,-108 42.14,-108 42.14,-108 36.14,-108 30.14,-102 30.14,-96 30.14,-96 30.14,-84 30.14,-84 30.14,-78 36.14,-72 42.14,-72 42.14,-72 73.14,-72 73.14,-72 79.14,-72 85.14,-78 85.14,-84 85.14,-84 85.14,-96 85.14,-96 85.14,-102 79.14,-108 73.14,-108"/>
<text text-anchor="middle" x="57.64" y="-87.5" font-family="sans" font-size="10.00">volcano</text>
</g>
<!-- 11&#45;&gt;14 -->
<g id="edge20" class="edge">
<title>11&#45;&gt;14</title>
<path fill="none" stroke="grey" stroke-width="2" d="M120.88,-143.7C110.4,-134.97 97.53,-124.24 86.14,-114.75"/>
<polygon fill="grey" stroke="grey" stroke-width="2" points="88.09,-111.82 78.17,-108.1 83.61,-117.19 88.09,-111.82"/>
</g>
<!-- 15 -->
<g id="node16" class="node">
<title>15</title>
<path fill="none" stroke="#d6d856" stroke-width="2" d="M168.14,-108C168.14,-108 115.14,-108 115.14,-108 109.14,-108 103.14,-102 103.14,-96 103.14,-96 103.14,-84 103.14,-84 103.14,-78 109.14,-72 115.14,-72 115.14,-72 168.14,-72 168.14,-72 174.14,-72 180.14,-78 180.14,-84 180.14,-84 180.14,-96 180.14,-96 180.14,-102 174.14,-108 168.14,-108"/>
<text text-anchor="middle" x="141.64" y="-87.5" font-family="sans" font-size="10.00">enrichments</text>
</g>
<!-- 11&#45;&gt;15 -->
<g id="edge21" class="edge">
<title>11&#45;&gt;15</title>
<path fill="none" stroke="grey" stroke-width="2" d="M141.64,-143.7C141.64,-135.98 141.64,-126.71 141.64,-118.11"/>
<polygon fill="grey" stroke="grey" stroke-width="2" points="145.14,-118.1 141.64,-108.1 138.14,-118.1 145.14,-118.1"/>
</g>
<!-- 12 -->
<g id="node13" class="node">
<title>12</title>
<path fill="none" stroke="#56d882" stroke-width="2" d="M196.64,-252C196.64,-252 86.64,-252 86.64,-252 80.64,-252 74.64,-246 74.64,-240 74.64,-240 74.64,-228 74.64,-228 74.64,-222 80.64,-216 86.64,-216 86.64,-216 196.64,-216 196.64,-216 202.64,-216 208.64,-222 208.64,-228 208.64,-228 208.64,-240 208.64,-240 208.64,-246 202.64,-252 196.64,-252"/>
<text text-anchor="middle" x="141.64" y="-231.5" font-family="sans" font-size="10.00">differential_expresssion</text>
</g>
<!-- 12&#45;&gt;11 -->
<g id="edge16" class="edge">
<title>12&#45;&gt;11</title>
<path fill="none" stroke="grey" stroke-width="2" d="M141.64,-215.7C141.64,-207.98 141.64,-198.71 141.64,-190.11"/>
<polygon fill="grey" stroke="grey" stroke-width="2" points="145.14,-190.1 141.64,-180.1 138.14,-190.1 145.14,-190.1"/>
</g>
<!-- 13&#45;&gt;12 -->
<g id="edge17" class="edge">
<title>13&#45;&gt;12</title>
<path fill="none" stroke="grey" stroke-width="2" d="M141.64,-287.7C141.64,-279.98 141.64,-270.71 141.64,-262.11"/>
<polygon fill="grey" stroke="grey" stroke-width="2" points="145.14,-262.1 141.64,-252.1 138.14,-262.1 145.14,-262.1"/>
</g>
<!-- 14&#45;&gt;0 -->
<g id="edge3" class="edge">
<title>14&#45;&gt;0</title>
<path fill="none" stroke="grey" stroke-width="2" d="M78.4,-71.7C88.88,-62.97 101.75,-52.24 113.14,-42.75"/>
<polygon fill="grey" stroke="grey" stroke-width="2" points="115.67,-45.19 121.12,-36.1 111.19,-39.82 115.67,-45.19"/>
</g>
<!-- 15&#45;&gt;0 -->
<g id="edge1" class="edge">
<title>15&#45;&gt;0</title>
<path fill="none" stroke="grey" stroke-width="2" d="M141.64,-71.7C141.64,-63.98 141.64,-54.71 141.64,-46.11"/>
<polygon fill="grey" stroke="grey" stroke-width="2" points="145.14,-46.1 141.64,-36.1 138.14,-46.1 145.14,-46.1"/>
</g>
</g>
</svg>
