<?xml version="1.0" encoding="UTF-8" standalone="no"?>
<!DOCTYPE svg PUBLIC "-//W3C//DTD SVG 1.1//EN"
 "http://www.w3.org/Graphics/SVG/1.1/DTD/svg11.dtd">
<!-- Generated by graphviz version 2.42.3 (20191010.1750)
 -->
<!-- Title: snakemake_dag Pages: 1 -->
<svg width="250pt" height="692pt"
 viewBox="0.00 0.00 250.00 692.00" xmlns="http://www.w3.org/2000/svg" xmlns:xlink="http://www.w3.org/1999/xlink">
<g id="graph0" class="graph" transform="scale(1 1) rotate(0) translate(4 688)">
<title>snakemake_dag</title>
<polygon fill="white" stroke="transparent" points="-4,4 -4,-688 246,-688 246,4 -4,4"/>
<!-- 0 -->
<g id="node1" class="node">
<title>0</title>
<path fill="none" stroke="#97d856" stroke-width="2" d="M107,-36C107,-36 77,-36 77,-36 71,-36 65,-30 65,-24 65,-24 65,-12 65,-12 65,-6 71,0 77,0 77,0 107,0 107,0 113,0 119,-6 119,-12 119,-12 119,-24 119,-24 119,-30 113,-36 107,-36"/>
<text text-anchor="middle" x="92" y="-15.5" font-family="sans" font-size="10.00">all</text>
</g>
<!-- 1 -->
<g id="node2" class="node">
<title>1</title>
<path fill="none" stroke="#5673d8" stroke-width="2" d="M104,-180C104,-180 12,-180 12,-180 6,-180 0,-174 0,-168 0,-168 0,-156 0,-156 0,-150 6,-144 12,-144 12,-144 104,-144 104,-144 110,-144 116,-150 116,-156 116,-156 116,-168 116,-168 116,-174 110,-180 104,-180"/>
<text text-anchor="middle" x="58" y="-159.5" font-family="sans" font-size="10.00">merge_count_tables</text>
</g>
<!-- 1&#45;&gt;0 -->
<g id="edge2" class="edge">
<title>1&#45;&gt;0</title>
<path fill="none" stroke="grey" stroke-width="2" d="M61.31,-143.86C64.87,-125.88 70.84,-96.84 77,-72 79.13,-63.42 81.67,-54.13 84.06,-45.76"/>
<polygon fill="grey" stroke="grey" stroke-width="2" points="87.43,-46.69 86.85,-36.11 80.71,-44.74 87.43,-46.69"/>
</g>
<!-- 5 -->
<g id="node6" class="node">
<title>5</title>
<path fill="none" stroke="#568ad8" stroke-width="2" d="M155.5,-108C155.5,-108 98.5,-108 98.5,-108 92.5,-108 86.5,-102 86.5,-96 86.5,-96 86.5,-84 86.5,-84 86.5,-78 92.5,-72 98.5,-72 98.5,-72 155.5,-72 155.5,-72 161.5,-72 167.5,-78 167.5,-84 167.5,-84 167.5,-96 167.5,-96 167.5,-102 161.5,-108 155.5,-108"/>
<text text-anchor="middle" x="127" y="-87.5" font-family="sans" font-size="10.00">TEs_counting</text>
</g>
<!-- 1&#45;&gt;5 -->
<g id="edge7" class="edge">
<title>1&#45;&gt;5</title>
<path fill="none" stroke="grey" stroke-width="2" d="M75.06,-143.7C83.5,-135.14 93.82,-124.66 103.04,-115.3"/>
<polygon fill="grey" stroke="grey" stroke-width="2" points="105.61,-117.68 110.14,-108.1 100.63,-112.77 105.61,-117.68"/>
</g>
<!-- 2 -->
<g id="node3" class="node">
<title>2</title>
<path fill="none" stroke="#d88d56" stroke-width="2" d="M154.5,-540C154.5,-540 85.5,-540 85.5,-540 79.5,-540 73.5,-534 73.5,-528 73.5,-528 73.5,-516 73.5,-516 73.5,-510 79.5,-504 85.5,-504 85.5,-504 154.5,-504 154.5,-504 160.5,-504 166.5,-510 166.5,-516 166.5,-516 166.5,-528 166.5,-528 166.5,-534 160.5,-540 154.5,-540"/>
<text text-anchor="middle" x="120" y="-519.5" font-family="sans" font-size="10.00">align_first_pass</text>
</g>
<!-- 2&#45;&gt;1 -->
<g id="edge3" class="edge">
<title>2&#45;&gt;1</title>
<path fill="none" stroke="grey" stroke-width="2" d="M113.32,-503.81C103.68,-477.4 87,-425.06 87,-379 87,-379 87,-379 87,-305 87,-264.21 75.37,-218.15 66.84,-189.84"/>
<polygon fill="grey" stroke="grey" stroke-width="2" points="70.18,-188.77 63.87,-180.26 63.49,-190.84 70.18,-188.77"/>
</g>
<!-- 10 -->
<g id="node11" class="node">
<title>10</title>
<path fill="none" stroke="#d85656" stroke-width="2" d="M185.5,-468C185.5,-468 132.5,-468 132.5,-468 126.5,-468 120.5,-462 120.5,-456 120.5,-456 120.5,-444 120.5,-444 120.5,-438 126.5,-432 132.5,-432 132.5,-432 185.5,-432 185.5,-432 191.5,-432 197.5,-438 197.5,-444 197.5,-444 197.5,-456 197.5,-456 197.5,-462 191.5,-468 185.5,-468"/>
<text text-anchor="middle" x="159" y="-447.5" font-family="sans" font-size="10.00">move_bams</text>
</g>
<!-- 2&#45;&gt;10 -->
<g id="edge12" class="edge">
<title>2&#45;&gt;10</title>
<path fill="none" stroke="grey" stroke-width="2" d="M129.64,-503.7C134.13,-495.64 139.56,-485.89 144.52,-476.98"/>
<polygon fill="grey" stroke="grey" stroke-width="2" points="147.66,-478.54 149.47,-468.1 141.55,-475.14 147.66,-478.54"/>
</g>
<!-- 3 -->
<g id="node4" class="node">
<title>3</title>
<path fill="none" stroke="#56d8b9" stroke-width="2" d="M155.5,-612C155.5,-612 84.5,-612 84.5,-612 78.5,-612 72.5,-606 72.5,-600 72.5,-600 72.5,-588 72.5,-588 72.5,-582 78.5,-576 84.5,-576 84.5,-576 155.5,-576 155.5,-576 161.5,-576 167.5,-582 167.5,-588 167.5,-588 167.5,-600 167.5,-600 167.5,-606 161.5,-612 155.5,-612"/>
<text text-anchor="middle" x="120" y="-591.5" font-family="sans" font-size="10.00">merge_fastq_pe</text>
</g>
<!-- 3&#45;&gt;2 -->
<g id="edge4" class="edge">
<title>3&#45;&gt;2</title>
<path fill="none" stroke="grey" stroke-width="2" d="M120,-575.7C120,-567.98 120,-558.71 120,-550.11"/>
<polygon fill="grey" stroke="grey" stroke-width="2" points="123.5,-550.1 120,-540.1 116.5,-550.1 123.5,-550.1"/>
</g>
<!-- 4 -->
<g id="node5" class="node">
<title>4</title>
<path fill="none" stroke="#d8c356" stroke-width="2" d="M151.5,-684C151.5,-684 88.5,-684 88.5,-684 82.5,-684 76.5,-678 76.5,-672 76.5,-672 76.5,-660 76.5,-660 76.5,-654 82.5,-648 88.5,-648 88.5,-648 151.5,-648 151.5,-648 157.5,-648 163.5,-654 163.5,-660 163.5,-660 163.5,-672 163.5,-672 163.5,-678 157.5,-684 151.5,-684"/>
<text text-anchor="middle" x="120" y="-663.5" font-family="sans" font-size="10.00">copy_fastq_pe</text>
</g>
<!-- 4&#45;&gt;3 -->
<g id="edge5" class="edge">
<title>4&#45;&gt;3</title>
<path fill="none" stroke="grey" stroke-width="2" d="M120,-647.7C120,-639.98 120,-630.71 120,-622.11"/>
<polygon fill="grey" stroke="grey" stroke-width="2" points="123.5,-622.1 120,-612.1 116.5,-622.1 123.5,-622.1"/>
</g>
<!-- 5&#45;&gt;0 -->
<g id="edge1" class="edge">
<title>5&#45;&gt;0</title>
<path fill="none" stroke="grey" stroke-width="2" d="M118.35,-71.7C114.36,-63.73 109.55,-54.1 105.13,-45.26"/>
<polygon fill="grey" stroke="grey" stroke-width="2" points="108.15,-43.48 100.55,-36.1 101.89,-46.61 108.15,-43.48"/>
</g>
<!-- 6 -->
<g id="node7" class="node">
<title>6</title>
<path fill="none" stroke="#b6d856" stroke-width="2" d="M230,-180C230,-180 146,-180 146,-180 140,-180 134,-174 134,-168 134,-168 134,-156 134,-156 134,-150 140,-144 146,-144 146,-144 230,-144 230,-144 236,-144 242,-150 242,-156 242,-156 242,-168 242,-168 242,-174 236,-180 230,-180"/>
<text text-anchor="middle" x="188" y="-159.5" font-family="sans" font-size="10.00">align_second_pass</text>
</g>
<!-- 6&#45;&gt;5 -->
<g id="edge6" class="edge">
<title>6&#45;&gt;5</title>
<path fill="none" stroke="grey" stroke-width="2" d="M172.92,-143.7C165.61,-135.3 156.69,-125.07 148.66,-115.86"/>
<polygon fill="grey" stroke="grey" stroke-width="2" points="151.11,-113.34 141.91,-108.1 145.84,-117.94 151.11,-113.34"/>
</g>
<!-- 7 -->
<g id="node8" class="node">
<title>7</title>
<path fill="none" stroke="#56d882" stroke-width="2" d="M209.5,-252C209.5,-252 150.5,-252 150.5,-252 144.5,-252 138.5,-246 138.5,-240 138.5,-240 138.5,-228 138.5,-228 138.5,-222 144.5,-216 150.5,-216 150.5,-216 209.5,-216 209.5,-216 215.5,-216 221.5,-222 221.5,-228 221.5,-228 221.5,-240 221.5,-240 221.5,-246 215.5,-252 209.5,-252"/>
<text text-anchor="middle" x="180" y="-231.5" font-family="sans" font-size="10.00">bam_to_fastq</text>
</g>
<!-- 7&#45;&gt;6 -->
<g id="edge8" class="edge">
<title>7&#45;&gt;6</title>
<path fill="none" stroke="grey" stroke-width="2" d="M181.98,-215.7C182.86,-207.98 183.92,-198.71 184.9,-190.11"/>
<polygon fill="grey" stroke="grey" stroke-width="2" points="188.39,-190.44 186.05,-180.1 181.43,-189.64 188.39,-190.44"/>
</g>
<!-- 8 -->
<g id="node9" class="node">
<title>8</title>
<path fill="none" stroke="#56d89a" stroke-width="2" d="M205,-324C205,-324 141,-324 141,-324 135,-324 129,-318 129,-312 129,-312 129,-300 129,-300 129,-294 135,-288 141,-288 141,-288 205,-288 205,-288 211,-288 217,-294 217,-300 217,-300 217,-312 217,-312 217,-318 211,-324 205,-324"/>
<text text-anchor="middle" x="173" y="-303.5" font-family="sans" font-size="10.00">filter_bam_file</text>
</g>
<!-- 8&#45;&gt;7 -->
<g id="edge9" class="edge">
<title>8&#45;&gt;7</title>
<path fill="none" stroke="grey" stroke-width="2" d="M174.73,-287.7C175.5,-279.98 176.43,-270.71 177.29,-262.11"/>
<polygon fill="grey" stroke="grey" stroke-width="2" points="180.78,-262.4 178.29,-252.1 173.81,-261.71 180.78,-262.4"/>
</g>
<!-- 9 -->
<g id="node10" class="node">
<title>9</title>
<path fill="none" stroke="#56a9d8" stroke-width="2" d="M192,-396C192,-396 136,-396 136,-396 130,-396 124,-390 124,-384 124,-384 124,-372 124,-372 124,-366 130,-360 136,-360 136,-360 192,-360 192,-360 198,-360 204,-366 204,-372 204,-372 204,-384 204,-384 204,-390 198,-396 192,-396"/>
<text text-anchor="middle" x="164" y="-375.5" font-family="sans" font-size="10.00">tag_bam_file</text>
</g>
<!-- 9&#45;&gt;8 -->
<g id="edge10" class="edge">
<title>9&#45;&gt;8</title>
<path fill="none" stroke="grey" stroke-width="2" d="M166.22,-359.7C167.22,-351.98 168.41,-342.71 169.51,-334.11"/>
<polygon fill="grey" stroke="grey" stroke-width="2" points="173,-334.47 170.8,-324.1 166.05,-333.58 173,-334.47"/>
</g>
<!-- 10&#45;&gt;9 -->
<g id="edge11" class="edge">
<title>10&#45;&gt;9</title>
<path fill="none" stroke="grey" stroke-width="2" d="M160.24,-431.7C160.79,-423.98 161.45,-414.71 162.06,-406.11"/>
<polygon fill="grey" stroke="grey" stroke-width="2" points="165.56,-406.33 162.78,-396.1 158.57,-405.83 165.56,-406.33"/>
</g>
</g>
</svg>
